<svg version="1.1" xmlns="http://www.w3.org/2000/svg" xmlns:xlink="http://www.w3.org/1999/xlink" width="105.32103" height="180.74827" viewBox="0,0,105.32103,180.74827"><g transform="translate(-134.79951,-165.78349)"><g data-paper-data="{&quot;isPaintingLayer&quot;:true}" fill-rule="nonzero" stroke-linecap="butt" stroke-linejoin="miter" stroke-miterlimit="10" stroke-dasharray="" stroke-dashoffset="0" style="mix-blend-mode: normal"><path d="M166.8257,346.03176c-2.20914,0 -4,-1.79086 -4,-4v-66.51613c0,-2.20914 1.79086,-4 4,-4h41.35484c2.20914,0 4,1.79086 4,4v66.51613c0,2.20914 -1.79086,4 -4,4z" fill-opacity="0.50196" fill="#000000" stroke="#000000" stroke-width="1"/><path d="M235.12054,166.78349c2.20914,0 4,1.79086 4,4v134.06642c0,2.20914 -1.79086,4 -4,4h-95.32103c-2.20914,0 -4,-1.79086 -4,-4v-134.06642c0,-2.20914 1.79086,-4 4,-4z" data-paper-data="{&quot;index&quot;:null}" fill="#ffffff" stroke="#000000" stroke-width="2"/><text transform="translate(179.52331,254.06269) scale(1.17189,1.17189)" font-size="40" xml:space="preserve" fill="#c20000" fill-rule="nonzero" stroke="none" stroke-width="1" stroke-linecap="butt" stroke-linejoin="miter" stroke-miterlimit="10" stroke-dasharray="" stroke-dashoffset="0" font-family="Sans Serif" font-weight="normal" text-anchor="start" style="mix-blend-mode: normal"><tspan x="0" dy="0">?</tspan></text><path d="M145.6396,188.38006v-7.99016c0,-0.30678 0.03453,-0.6055 0.09993,-0.89247c0.37536,-1.81965 1.98665,-3.18767 3.91746,-3.18767h6.81888c0.27419,0 0.54193,0.02759 0.80061,0.08014h69.84896c2.20914,0 4,1.79086 4,4v7.99016c0,2.20914 -1.79086,4 -4,4h-66.64958v15.05594c0,2.20914 -1.79086,4 -4,4h-6.81888c-2.20914,0 -4,-1.79086 -4,-4v-18.68042c-0.01151,-0.12363 -0.01739,-0.24889 -0.01739,-0.37552z" data-paper-data="{&quot;index&quot;:null}" fill="#c20000" stroke="#000000" stroke-width="2"/><path d="M145.6396,188.38006v-7.99016c0,-0.30678 0.03453,-0.6055 0.09993,-0.89247c0.37536,-1.81965 1.98665,-3.18767 3.91746,-3.18767h6.81888c0.27419,0 0.54193,0.02759 0.80061,0.08014h69.84896c2.20914,0 4,1.79086 4,4v7.99016c0,2.20914 -1.79086,4 -4,4h-66.64958v15.05594c0,2.20914 -1.79086,4 -4,4h-6.81888c-2.20914,0 -4,-1.79086 -4,-4v-18.68042c-0.01151,-0.12363 -0.01739,-0.24889 -0.01739,-0.37552z" data-paper-data="{&quot;index&quot;:null}" fill="#c20000" stroke="#000000" stroke-width="2"/><path d="M229.28044,286.53994v7.99016c0,0.30678 -0.03453,0.6055 -0.09993,0.89247c-0.37536,1.81965 -1.98665,3.18767 -3.91746,3.18767h-6.81888c-0.27419,0 -0.54193,-0.02759 -0.80061,-0.08014h-69.84897c-2.20914,0 -4,-1.79086 -4,-4v-7.99016c0,-2.20914 1.79086,-4 4,-4h66.64958v-15.05594c0,-2.20914 1.79086,-4 4,-4h6.81888c2.20914,0 4,1.79086 4,4v18.68042c0.01151,0.12363 0.01739,0.24889 0.01739,0.37552z" data-paper-data="{&quot;index&quot;:null}" fill="#c20000" stroke="#000000" stroke-width="2"/><text transform="translate(181.78312,333.12638) scale(0.5,0.5)" font-size="40" xml:space="preserve" fill="#ffffff" fill-rule="nonzero" stroke="none" stroke-width="1" stroke-linecap="butt" stroke-linejoin="miter" stroke-miterlimit="10" stroke-dasharray="" stroke-dashoffset="0" font-family="Sans Serif" font-weight="normal" text-anchor="start" style="mix-blend-mode: normal"><tspan x="0" dy="0">4</tspan></text></g></g></svg>